<svg id="rightFoot" width="1019" height="138" viewBox="0 0 1019 138" fill="none" xmlns="http://www.w3.org/2000/svg">
<path fill-rule="evenodd" clip-rule="evenodd" d="M-48 0L962.798 0C972.133 0 980.085 6.78079 981.56 15.9982L1019 250H-48V0Z" fill="#2980B9"/>
<mask id="mask0" mask-type="alpha" maskUnits="userSpaceOnUse" x="-48" y="0" width="1067" height="250">
<path fill-rule="evenodd" clip-rule="evenodd" d="M-48 0L962.798 0C972.133 0 980.085 6.78079 981.56 15.9982L1019 250H-48V0Z" fill="white"/>
</mask>
<g mask="url(#mask0)">
<path opacity="0.230208" fill-rule="evenodd" clip-rule="evenodd" d="M138.966 -64.8831C138.966 -88.1436 120.11 -107 96.8494 -107C73.5889 -107 54.7324 -88.1436 54.7324 -64.8831C54.7324 -41.6226 73.5889 -22.7662 96.8494 -22.7662C120.11 -22.7662 138.966 -41.6226 138.966 -64.8831ZM210.457 120.493L323.101 19.0684C345.729 -5.37689 378.093 -20.6799 414.03 -20.6799C482.447 -20.6799 537.91 34.7828 537.91 103.2C537.91 171.616 482.447 227.079 414.03 227.079C363.246 227.079 319.599 196.52 300.475 152.788L224.074 221.58C219.547 226.773 213.681 230.926 206.75 233.448C184.892 241.404 160.724 230.134 152.768 208.276L103.028 71.6162C95.0723 49.7585 106.342 25.59 128.2 17.6344C150.058 9.67883 174.226 20.9488 182.182 42.8066L210.457 120.493ZM415.438 63.7833C392.892 63.7833 374.614 82.0608 374.614 104.607C374.614 127.154 392.892 145.431 415.438 145.431C437.984 145.431 456.262 127.154 456.262 104.607C456.262 82.0608 437.984 63.7833 415.438 63.7833Z" fill="#32ACC0"/>
</g>
</svg>
